<?xml version="1.0" standalone="no"?>
<!DOCTYPE svg PUBLIC "-//W3C//DTD SVG 20010904//EN"
 "http://www.w3.org/TR/2001/REC-SVG-20010904/DTD/svg10.dtd">
<svg version="1.0" xmlns="http://www.w3.org/2000/svg"
 width="732.000000pt" height="732.000000pt" viewBox="0 0 732.000000 732.000000"
 preserveAspectRatio="xMidYMid meet">
<metadata>
Created by potrace 1.14, written by Peter Selinger 2001-2017
</metadata>
<g transform="translate(0.000000,732.000000) scale(0.100000,-0.100000)"
fill="#000000" stroke="none">
<path d="M2511 7302 c-16 -29 22 -94 100 -172 61 -62 163 -140 206 -158 36
-15 123 -74 123 -84 0 -19 -409 -198 -453 -198 -22 0 -42 -29 -30 -41 12 -12
219 -18 276 -8 20 3 40 2 43 -2 3 -5 10 -7 15 -4 5 4 37 8 71 11 102 7 161 12
198 18 35 6 78 12 148 21 l37 5 -30 -26 c-75 -65 -186 -125 -260 -140 -5 -1
-32 -7 -59 -13 -107 -25 -209 -31 -608 -36 -191 -2 -370 -6 -398 -9 -122 -12
-91 -37 155 -126 77 -28 154 -57 170 -64 17 -7 44 -19 62 -26 59 -23 60 -37 6
-61 -143 -63 -207 -99 -290 -161 -108 -80 -222 -189 -287 -273 -26 -33 -51
-65 -55 -71 -18 -22 -71 -121 -71 -131 0 -11 74 -8 92 3 17 11 7 -15 -22 -54
-28 -39 -38 -52 -83 -105 -10 -12 -59 -64 -109 -116 -66 -68 -87 -95 -77 -101
7 -5 20 -5 28 0 9 4 19 9 23 9 29 5 157 61 328 143 132 64 1049 518 1059 525
10 7 -27 33 -73 51 l-49 19 69 27 c38 16 80 30 93 33 14 2 28 6 33 9 4 3 16 7
25 9 10 2 68 18 128 35 61 16 121 32 135 35 14 3 41 10 60 15 35 11 224 60
247 64 7 1 16 5 19 9 4 4 15 7 24 7 31 0 210 62 234 81 16 12 26 33 30 61 3
24 7 49 8 56 1 6 5 12 9 12 4 0 9 10 12 23 10 39 68 107 104 122 41 17 124 22
168 10 42 -11 112 -42 131 -57 60 -49 120 -109 152 -152 71 -98 100 -128 145
-150 22 -10 37 -12 49 -5 18 9 49 61 47 76 -1 4 0 10 1 13 1 3 4 16 6 30 24
203 40 291 57 314 12 16 17 16 71 -4 42 -16 61 -19 69 -11 6 6 12 46 14 88 1
43 4 87 7 98 2 11 5 28 5 38 2 31 29 18 95 -43 96 -91 110 -130 122 -340 10
-191 19 -250 39 -250 26 0 36 76 37 269 0 128 -4 196 -15 251 -2 8 -11 31 -20
50 -97 198 -271 326 -539 394 -94 24 -135 31 -288 51 -176 24 -665 24 -785 1
-11 -2 -47 -7 -80 -11 -33 -4 -76 -9 -95 -12 -90 -12 -122 -14 -224 -17 -63
-1 -128 3 -155 10 -57 15 -140 42 -166 54 -49 23 -239 100 -246 100 -5 0 -13
-8 -18 -18z"/>
<path d="M4005 6438 c-34 -19 -65 -51 -65 -68 0 -10 21 -26 53 -41 l52 -24 1
-55 c1 -78 0 -75 47 -119 27 -26 43 -50 45 -68 3 -42 16 -47 63 -23 65 33 169
109 169 124 0 30 -44 99 -97 153 -77 77 -91 87 -157 112 -64 24 -82 25 -111 9z"/>
<path d="M3619 6096 c-2 -3 -22 -7 -44 -10 -22 -2 -55 -9 -72 -15 -18 -5 -33
-8 -33 -6 0 3 -11 0 -25 -5 -14 -5 -36 -12 -48 -14 -12 -2 -51 -12 -87 -21
-36 -9 -69 -18 -75 -19 -44 -8 -216 -71 -226 -82 -9 -11 -8 -14 2 -15 51 -5
61 -7 70 -16 6 -6 -10 -23 -45 -46 -31 -21 -58 -37 -60 -37 -2 0 -32 -16 -67
-36 -35 -19 -144 -76 -244 -127 -99 -50 -181 -95 -183 -99 -2 -4 -8 -8 -12 -8
-17 0 -375 -210 -406 -238 -5 -5 -21 -15 -35 -22 -13 -7 -82 -56 -154 -108
-298 -218 -477 -397 -569 -573 -37 -68 -91 -219 -101 -279 -3 -19 -8 -42 -11
-51 -13 -45 -28 -197 -28 -301 -1 -54 -5 -98 -9 -98 -5 0 -6 -4 -3 -9 3 -4 7
-61 10 -126 3 -64 7 -119 9 -121 2 -3 17 33 32 78 35 103 104 276 139 344 14
29 26 56 26 62 0 5 7 15 15 22 9 7 14 15 11 17 -9 9 165 274 210 320 16 17 24
5 14 -20 -12 -32 -23 -61 -26 -72 -20 -79 -46 -186 -49 -210 -16 -107 -19
-144 -19 -270 -1 -292 50 -461 216 -717 l69 -107 254 -1 254 -1 -5 78 c-5 100
-5 241 0 273 2 14 7 46 10 71 6 41 14 87 20 114 2 8 27 120 31 135 2 9 36 125
40 138 3 7 5 14 5 17 1 6 58 164 69 190 5 11 13 31 18 45 6 14 22 51 37 82 14
31 26 59 26 61 0 2 18 36 39 76 22 39 37 71 35 71 -3 0 0 6 6 13 6 6 29 41 51
77 23 36 45 67 50 68 5 2 9 8 9 13 0 6 21 36 48 67 43 52 65 77 131 151 146
163 391 392 581 545 111 88 190 158 190 167 0 16 -208 -122 -270 -178 -14 -13
-28 -23 -31 -23 -3 0 -15 -8 -27 -17 -11 -10 -37 -31 -58 -48 -20 -16 -47 -39
-60 -50 -12 -11 -37 -32 -55 -47 -39 -30 -67 -54 -125 -106 -38 -35 -109 -96
-179 -156 -16 -14 -31 -22 -33 -17 -6 19 64 113 193 260 56 65 250 256 314
311 73 62 171 156 171 164 0 10 -34 -8 -105 -54 -119 -79 -166 -103 -176 -93
-25 25 136 200 296 320 127 95 161 126 178 161 18 33 15 88 -7 130 -15 29 -21
32 -65 32 -26 0 -50 -2 -52 -4z"/>
<path d="M5330 5958 c1 -9 31 -82 54 -130 29 -61 28 -74 -8 -87 -29 -11 -75
12 -106 53 -36 48 -71 60 -191 62 -127 2 -145 7 -153 39 -4 14 -13 25 -20 25
-14 0 -96 -86 -96 -100 0 -17 57 -29 152 -31 132 -2 180 -17 243 -74 28 -25
64 -49 80 -53 31 -9 102 -8 195 3 30 4 70 9 88 11 18 1 37 6 42 9 17 11 -188
239 -237 264 -20 10 -43 15 -43 9z"/>
<path d="M3911 5868 c-18 -58 -21 -116 -6 -128 11 -9 21 -4 50 25 58 60 61 71
26 105 -38 39 -57 38 -70 -2z"/>
<path d="M4429 5463 c0 -54 -3 -109 -5 -123 -6 -32 -40 -67 -89 -92 -144 -73
-377 -314 -424 -440 -7 -18 -17 -42 -21 -53 -17 -39 -52 -140 -55 -157 -8 -41
-45 -108 -67 -122 -14 -9 -46 -19 -73 -22 -27 -3 -57 -10 -67 -15 -18 -10 -25
-55 -9 -61 4 -1 25 -16 45 -33 37 -29 57 -41 240 -139 245 -131 325 -214 454
-471 79 -157 198 -467 217 -565 7 -37 46 -100 63 -101 80 -7 125 16 136 71 22
113 43 159 72 160 15 0 83 -78 110 -126 6 -10 17 -30 25 -44 8 -13 20 -30 27
-38 6 -7 12 -18 12 -23 0 -5 84 -9 200 -9 110 0 200 3 200 6 0 3 -11 54 -25
113 -57 235 -136 453 -239 658 -92 182 -104 225 -75 254 18 18 22 18 57 4 35
-14 72 -50 247 -240 83 -90 118 -114 177 -120 86 -9 285 59 289 98 5 52 -16
79 -83 112 -71 34 -156 44 -288 31 -42 -4 -72 15 -144 88 -82 83 -112 144
-121 241 -6 72 -12 85 -37 89 -27 3 -67 35 -137 108 -60 62 -72 70 -85 59 -9
-8 -16 -20 -16 -27 0 -8 -4 -14 -10 -14 -5 0 -10 -6 -10 -14 0 -8 -18 -21 -40
-30 -58 -23 -164 -15 -270 22 -249 86 -300 151 -295 378 2 122 14 150 101 235
151 147 214 216 214 234 0 18 -49 77 -125 150 -38 36 -70 65 -71 65 -2 0 -4
-44 -5 -97z"/>
<path d="M5503 5368 c-13 -6 -23 -15 -23 -20 0 -4 -5 -8 -10 -8 -17 0 -121
-80 -161 -124 -70 -75 -101 -173 -75 -236 15 -39 70 -109 84 -110 6 0 12 -4
12 -9 0 -4 33 -23 73 -42 67 -31 80 -34 185 -36 61 -1 112 2 112 7 0 4 -21 13
-46 19 -26 7 -64 21 -86 32 -48 25 -118 87 -115 102 3 18 29 25 61 16 16 -5
47 -11 70 -15 22 -3 43 -7 46 -9 14 -9 147 -14 159 -6 26 17 2 33 -120 84 -46
19 -86 53 -107 92 -13 23 -17 58 -17 149 0 71 -4 120 -10 122 -5 1 -20 -2 -32
-8z"/>
<path d="M5932 5273 c2 -10 11 -31 20 -48 117 -207 118 -260 5 -410 -39 -52
-111 -125 -145 -146 -46 -29 -70 -82 -70 -152 1 -31 6 -64 12 -72 16 -21 64
-26 102 -10 57 24 78 73 89 210 6 76 34 130 107 208 32 34 68 75 81 90 12 15
32 40 44 54 32 39 76 133 80 175 5 41 -10 78 -33 78 -8 0 -26 -7 -39 -16 -44
-29 -83 -25 -170 17 -44 21 -81 39 -83 39 -2 0 -2 -8 0 -17z"/>
<path d="M3555 5198 c-78 -29 -213 -133 -335 -258 -130 -133 -152 -160 -250
-292 -50 -68 -99 -134 -110 -148 -11 -14 -20 -30 -20 -37 0 -6 -3 -13 -7 -15
-12 -5 -53 -66 -53 -78 0 -5 -4 -10 -10 -10 -5 0 -10 -4 -10 -10 0 -5 -17 -38
-38 -72 -82 -134 -178 -319 -220 -420 -37 -93 -44 -111 -48 -123 -17 -57 -35
-125 -38 -145 -22 -120 -26 -215 -14 -274 5 -21 10 -50 12 -65 4 -33 55 -162
70 -179 9 -9 200 -12 911 -10 841 3 898 4 882 20 -9 9 -17 19 -17 22 0 3 -14
25 -30 48 -17 24 -38 54 -48 68 -9 14 -22 31 -30 38 -7 8 -25 30 -40 50 -15
21 -35 46 -45 57 -22 24 -97 131 -97 139 0 4 8 6 19 6 42 0 221 -193 289 -312
52 -90 91 -129 138 -135 35 -4 44 -2 57 17 8 12 14 31 11 41 -2 10 -6 29 -9
41 -19 86 -92 273 -161 413 -92 186 -185 294 -383 444 -87 66 -250 177 -301
205 -101 55 -220 129 -249 155 -29 26 -31 32 -20 53 13 25 142 155 227 229
l53 45 -21 75 c-57 196 -61 241 -30 339 30 95 28 100 -35 78z"/>
<path d="M5163 4725 c-20 -9 -35 -26 -46 -53 -16 -41 -14 -109 4 -127 11 -11
178 -12 336 -1 112 8 178 25 178 47 0 36 -272 133 -401 143 -23 2 -54 -2 -71
-9z"/>
<path d="M603 2519 c-136 -17 -231 -85 -272 -194 -40 -105 -32 -316 13 -403
31 -59 109 -122 166 -134 8 -2 17 -6 20 -9 18 -24 283 -26 395 -3 17 3 40 7
53 9 12 1 25 5 29 8 7 7 9 165 2 171 -2 2 -42 -4 -89 -15 -61 -13 -116 -18
-195 -16 -189 5 -222 37 -219 213 1 140 25 178 124 199 49 11 175 8 257 -6 37
-6 82 -13 98 -15 l30 -5 -1 83 0 83 -35 12 c-71 23 -274 35 -376 22z"/>
<path d="M1504 2514 c-107 -21 -131 -33 -199 -101 -61 -61 -79 -126 -78 -278
0 -98 5 -131 22 -176 45 -119 143 -181 306 -196 204 -18 345 15 425 98 34 36
72 110 78 153 8 50 6 208 -2 255 -21 125 -124 222 -261 247 -65 11 -228 11
-291 -2z m291 -191 c58 -31 68 -54 73 -165 5 -119 -15 -173 -75 -202 -50 -24
-196 -30 -262 -10 -90 26 -111 66 -112 206 -1 156 55 201 241 195 73 -3 104
-8 135 -24z"/>
<path d="M3568 2508 c-114 -29 -175 -75 -214 -164 -19 -43 -33 -101 -36 -149
0 -5 2 -54 5 -107 14 -233 136 -330 417 -330 55 1 162 10 203 18 12 2 37 7 55
10 l32 6 0 90 c0 98 6 91 -61 72 -41 -12 -75 -15 -194 -19 -137 -4 -193 10
-229 58 -18 25 -21 44 -23 140 -2 122 7 151 55 185 52 38 197 44 352 17 47 -8
88 -15 93 -15 4 0 7 38 7 84 0 99 13 88 -140 112 -95 14 -250 10 -322 -8z"/>
<path d="M4577 2524 c-1 -1 -23 -5 -49 -8 -61 -8 -121 -30 -161 -58 -43 -30
-50 -37 -79 -83 -23 -37 -30 -56 -43 -125 -13 -65 -4 -247 13 -274 3 -6 8 -20
9 -30 5 -27 67 -101 107 -125 50 -31 109 -50 184 -57 313 -31 492 64 518 276
26 205 -24 358 -138 428 -35 21 -129 51 -163 52 -11 0 -60 1 -108 3 -48 2 -89
2 -90 1z m221 -194 c67 -30 84 -67 87 -177 3 -174 -41 -217 -225 -217 -176 -1
-223 40 -225 193 -1 47 2 100 7 117 10 38 45 72 95 89 56 20 212 17 261 -5z"/>
<path d="M5546 2523 c-1 -1 -42 -5 -92 -8 -49 -3 -98 -7 -109 -9 -19 -3 -20
-12 -20 -362 l0 -359 97 -3 96 -3 0 53 c0 29 1 83 1 119 l1 66 28 -3 c15 -2
64 -4 109 -5 l81 -2 19 -33 c9 -19 21 -34 25 -34 5 0 8 -4 8 -9 0 -5 21 -41
47 -80 l46 -72 77 2 c43 1 82 -1 88 -5 16 -10 27 43 14 63 -45 68 -123 193
-120 195 2 1 18 13 37 26 19 13 43 44 57 74 20 44 23 64 21 146 -2 83 -6 101
-27 130 -42 60 -90 89 -175 107 -28 5 -304 11 -309 6z m301 -196 c18 -18 24
-64 12 -95 -15 -38 -63 -51 -189 -50 -160 1 -151 -4 -148 87 l3 76 85 3 c47 2
89 4 94 5 23 7 130 -13 143 -26z"/>
<path d="M6507 2523 c-1 -1 -38 -5 -82 -8 -44 -3 -87 -8 -96 -11 -14 -4 -15
-45 -15 -358 1 -195 4 -357 7 -360 21 -22 328 -36 456 -22 94 11 209 64 250
116 23 28 55 101 62 138 3 20 5 87 5 147 -1 94 -5 118 -26 165 -14 30 -40 70
-58 88 -36 36 -112 79 -157 87 -15 2 -39 8 -53 11 -23 5 -289 12 -293 7z m246
-177 c47 -7 113 -45 128 -73 10 -18 14 -60 14 -134 0 -93 -3 -111 -21 -136
-38 -53 -85 -67 -231 -71 l-133 -4 -1 31 c0 17 0 92 0 166 0 248 -5 223 39
227 44 4 166 0 205 -6z"/>
<path d="M2314 2501 c-2 -2 -4 -166 -4 -363 l0 -359 98 3 97 3 0 223 c0 122 3
222 6 222 4 0 17 -14 30 -31 13 -16 33 -41 44 -53 11 -13 43 -52 70 -87 28
-35 57 -71 65 -80 8 -9 22 -25 30 -35 8 -10 42 -52 74 -91 l58 -73 98 0 97 0
-1 362 -1 362 -85 1 c-47 1 -90 -1 -96 -2 -7 -3 -10 -73 -10 -219 1 -119 -1
-220 -5 -225 -3 -5 -88 92 -188 216 -101 124 -187 225 -190 226 -19 4 -183 3
-187 0z"/>
<path d="M223 1284 c-33 -16 -63 -66 -63 -104 0 -39 30 -88 65 -104 30 -15
352 -16 3447 -14 3395 3 3413 3 3440 23 47 34 59 93 32 150 -33 71 288 65
-3486 65 -3070 0 -3406 -2 -3435 -16z"/>
<path d="M4738 554 c-2 -1 -37 -3 -78 -5 -41 -2 -79 -4 -85 -6 -6 -2 -10 -78
-10 -201 l1 -197 54 -3 55 -3 -1 65 0 65 59 -1 59 -2 42 -63 41 -63 53 0 c60
0 64 9 28 63 -49 71 -50 76 -23 97 30 24 41 59 38 124 -3 60 -29 100 -74 115
-30 10 -153 22 -159 15z m119 -107 c15 -9 6 -59 -12 -73 -12 -9 -135 -13 -166
-5 -10 2 -7 76 4 82 12 9 159 5 174 -4z"/>
<path d="M1686 540 c-2 -3 -2 -39 -2 -80 1 -41 -2 -83 -6 -92 -5 -9 -5 -19 -1
-21 5 -3 7 -51 7 -106 l-2 -101 192 0 191 0 1 48 2 47 -127 0 c-69 -1 -132 1
-138 3 -10 3 -13 43 -13 153 0 112 -3 149 -12 150 -65 3 -90 3 -92 -1z"/>
<path d="M2423 542 c-25 -3 -35 -10 -49 -40 -9 -20 -46 -98 -82 -172 -35 -74
-65 -141 -65 -147 0 -7 -4 -13 -9 -13 -4 0 -8 -7 -8 -15 0 -11 13 -15 53 -15
54 0 54 0 65 39 l12 38 104 0 c102 1 104 0 117 -26 7 -14 13 -29 13 -33 3 -21
79 -29 98 -10 11 11 -52 162 -81 196 -9 10 -15 21 -14 25 0 3 -5 21 -13 40 -8
18 -14 37 -14 42 0 5 -4 9 -10 9 -5 0 -10 7 -10 15 0 26 -34 70 -55 70 -11 0
-34 -1 -52 -3z m51 -157 c37 -78 36 -81 -30 -77 -30 2 -54 7 -52 11 2 3 14 32
27 64 14 31 26 57 27 57 1 0 13 -25 28 -55z"/>
<path d="M2777 542 c-23 -5 -22 -17 9 -98 14 -38 27 -73 28 -79 2 -5 7 -19 11
-30 37 -95 65 -172 65 -183 0 -9 12 -12 41 -10 41 3 49 13 67 81 19 72 48 157
53 157 4 0 24 -54 45 -120 l39 -121 39 3 c38 3 39 4 64 73 13 39 44 124 69
189 24 66 42 125 40 130 -4 9 -23 11 -83 7 -6 -1 -28 -57 -50 -126 -35 -115
-49 -145 -52 -112 -1 23 -64 222 -73 233 -4 5 -23 8 -42 6 -33 -4 -34 -5 -61
-95 -15 -51 -33 -107 -39 -124 -11 -33 -24 -44 -24 -20 0 6 -17 64 -37 128
-39 125 -38 124 -109 111z"/>
<path d="M3776 540 l-39 -5 -1 -197 -1 -198 53 0 c34 0 53 4 54 13 0 6 2 39 2
72 l2 60 107 3 c111 3 110 2 110 47 0 53 4 51 -110 51 -115 0 -112 -2 -104 52
1 5 62 8 136 8 114 -1 135 1 136 14 0 8 2 28 3 44 1 16 -4 30 -12 34 -18 6
-286 8 -336 2z"/>
<path d="M4309 542 l-25 -3 0 -197 1 -197 53 -3 52 -3 0 203 0 203 -27 0 c-16
0 -40 -1 -54 -3z"/>
<path d="M5173 542 c-13 -2 -23 -6 -24 -10 0 -4 -1 -92 -1 -197 l-1 -190 54 0
54 0 0 107 c0 59 3 109 6 112 2 3 25 -24 49 -60 69 -102 98 -108 150 -32 19
27 44 62 56 76 l20 25 0 -114 0 -114 55 0 54 0 0 195 c0 146 -3 196 -12 200
-7 3 -33 4 -57 2 -44 -4 -45 -5 -107 -98 -34 -52 -65 -97 -70 -99 -4 -3 -16
10 -27 28 -11 17 -42 63 -69 101 -51 72 -62 78 -130 68z"/>
</g>
</svg>
