<?xml version="1.0" standalone="no"?>
<!DOCTYPE svg PUBLIC "-//W3C//DTD SVG 20010904//EN"
 "http://www.w3.org/TR/2001/REC-SVG-20010904/DTD/svg10.dtd">
<svg version="1.0" xmlns="http://www.w3.org/2000/svg"
 width="748.000000pt" height="748.000000pt" viewBox="0 0 748.000000 748.000000"
 preserveAspectRatio="xMidYMid meet">
<metadata>
Created by potrace 1.14, written by Peter Selinger 2001-2017
</metadata>
<g transform="translate(0.000000,748.000000) scale(0.100000,-0.100000)"
fill="#000000" stroke="none">
<path d="M3445 7432 c-123 -59 -176 -165 -125 -249 11 -19 28 -33 39 -33 11 0
23 -4 26 -10 3 -5 12 -10 20 -10 8 0 25 -4 38 -9 l25 -10 -19 -73 c-20 -73
-33 -224 -21 -243 4 -5 7 -16 9 -24 2 -16 63 -106 93 -138 21 -23 26 -49 12
-55 -5 -1 -32 -33 -60 -69 -68 -87 -98 -109 -239 -173 -107 -49 -120 -58 -139
-95 -12 -22 -25 -50 -29 -63 -4 -13 -9 -27 -10 -33 -7 -20 -54 -231 -60 -265
-38 -236 -66 -340 -100 -380 -13 -15 -63 -128 -71 -159 -2 -9 -14 -59 -28
-111 -13 -52 -26 -115 -30 -140 -5 -41 -8 -58 -20 -130 -3 -14 -5 -30 -5 -37
-1 -14 -50 -31 -76 -26 -61 11 -85 10 -85 -3 0 -8 -4 -14 -9 -14 -5 0 -12 -8
-16 -19 -7 -23 -93 -70 -140 -76 -19 -3 -54 2 -77 10 -23 7 -45 12 -49 9 -10
-6 10 -52 35 -87 18 -24 22 -25 45 -12 21 10 121 52 198 82 14 5 43 -56 35
-72 -3 -5 -7 -25 -7 -45 -1 -19 -5 -50 -9 -69 -9 -44 13 -77 67 -101 23 -10
44 -17 48 -14 13 7 19 -27 9 -47 -8 -15 -7 -21 3 -25 28 -11 104 14 127 41 12
15 12 18 -4 27 -32 18 -37 52 -13 99 17 34 22 63 23 129 1 94 25 194 51 208 8
5 16 22 17 38 1 16 17 61 35 99 65 138 79 171 100 231 11 33 23 82 26 109 5
35 20 65 55 114 56 78 133 219 151 280 l13 43 28 -54 c88 -167 97 -216 49
-286 -14 -20 -24 -37 -22 -37 2 0 -17 -42 -42 -92 -25 -51 -44 -93 -43 -93 2
0 23 30 47 67 47 71 213 243 418 433 184 170 308 299 335 348 5 9 12 19 16 22
20 16 109 187 102 196 -4 4 -2 4 4 1 8 -5 -18 -136 -40 -202 -2 -5 -7 -20 -11
-33 -16 -50 -78 -169 -119 -227 -63 -90 -98 -129 -198 -220 -58 -53 -78 -70
-173 -150 -33 -27 -75 -63 -93 -80 l-32 -30 -1 -140 c-1 -128 5 -228 15 -280
2 -11 7 -40 11 -65 11 -67 12 -70 29 -135 9 -33 19 -67 21 -75 2 -8 11 -35 20
-60 9 -25 18 -52 20 -60 15 -64 153 -301 219 -375 l35 -40 -14 45 c-8 25 -31
92 -51 150 -19 58 -37 112 -39 120 -2 8 -11 40 -20 70 -9 30 -18 66 -20 80 -3
14 -9 45 -14 70 -19 95 -23 129 -26 260 -2 91 1 161 11 213 15 80 59 214 75
231 5 6 9 16 9 23 0 8 5 19 10 26 6 7 32 46 58 87 27 41 94 134 149 205 55 72
115 154 132 183 18 28 37 52 41 52 9 0 -26 -85 -64 -154 -73 -135 -114 -282
-114 -411 0 -80 3 -111 22 -205 5 -23 8 -36 22 -100 3 -14 7 -34 10 -45 2 -11
15 -71 27 -132 21 -102 22 -116 9 -145 -21 -46 -22 -53 -11 -96 10 -38 13 -45
48 -125 32 -72 53 -164 55 -237 l1 -64 -47 -13 c-44 -13 -46 -15 -39 -41 5
-15 20 -47 33 -72 66 -118 66 -118 56 -162 -8 -37 -41 -104 -58 -118 -12 -10
-39 -76 -46 -115 -11 -60 -5 -199 12 -275 3 -14 8 -36 10 -50 12 -66 37 -181
51 -235 8 -33 17 -69 19 -80 2 -11 12 -50 22 -87 l19 -68 -117 0 -118 0 -20
78 c-75 284 -176 609 -197 638 -10 15 -16 16 -28 6 -12 -10 -19 -5 -41 28 -14
22 -26 42 -26 45 0 2 -17 42 -38 87 -57 123 -67 145 -102 233 -68 171 -132
391 -145 504 -4 30 -9 63 -11 75 -8 32 -7 255 1 306 13 91 16 106 36 180 12
41 22 80 23 85 4 12 13 35 43 104 13 30 21 56 19 58 -7 8 -97 -90 -150 -164
-36 -51 -99 -180 -97 -200 0 -2 -6 -18 -15 -38 -8 -19 -14 -36 -13 -37 1 -2
-4 -21 -9 -43 -33 -123 -44 -316 -28 -495 4 -41 9 -102 11 -135 3 -33 8 -80
11 -105 3 -25 7 -61 9 -80 2 -19 6 -54 9 -77 8 -60 16 -123 21 -158 11 -98 52
-208 109 -297 45 -71 142 -193 240 -303 34 -38 51 -71 22 -43 -7 7 -71 60
-141 118 -70 58 -144 120 -164 137 -20 18 -41 33 -46 33 -6 0 -11 -35 -12 -82
-3 -118 -5 -127 -58 -288 -26 -80 -47 -151 -48 -157 0 -10 -51 -13 -218 -13
-165 0 -218 -3 -221 -12 -2 -7 -4 -62 -4 -123 l1 -110 700 -5 c385 -3 850 -4
1033 -2 l332 3 0 124 0 125 -217 2 -217 3 -8 35 c-11 46 -16 64 -18 68 -2 1
-3 5 -4 10 -1 4 -21 46 -44 94 -24 48 -50 120 -58 160 -14 66 -20 222 -10 273
2 11 7 45 11 75 4 30 9 64 11 75 3 11 7 35 10 54 3 18 8 43 10 55 7 36 33 199
38 241 16 129 18 172 18 290 -1 72 -3 139 -5 150 -3 11 -8 45 -11 75 -8 60
-24 146 -33 170 -3 8 -8 24 -10 35 -6 28 -9 38 -16 55 -5 13 -25 83 -33 115
-1 6 -19 64 -39 130 -21 66 -40 129 -42 140 -3 11 -7 27 -10 35 -12 30 -14 47
-14 120 0 75 8 109 80 350 31 100 43 163 44 223 1 29 8 31 92 29 154 -5 189
-2 297 22 131 29 249 64 262 76 4 4 -2 13 -14 20 -44 24 -103 86 -121 127 -10
24 -22 43 -26 44 -4 0 -19 2 -33 5 -14 2 -86 6 -160 8 -75 3 -149 10 -165 16
-17 7 -37 13 -45 15 -8 2 -51 13 -94 24 -44 12 -90 21 -102 21 -33 0 -231 103
-279 145 -41 36 -37 43 12 24 15 -6 54 -16 85 -24 54 -12 59 -12 83 7 15 12
25 30 25 46 0 37 15 56 42 57 22 0 23 4 26 76 l3 76 -48 21 c-51 21 -127 45
-155 48 -9 0 -24 4 -32 7 -27 11 -164 21 -274 20 -104 0 -104 0 -99 23 4 24
-1 28 -38 25 l-20 -2 20 13 c39 24 491 14 561 -12 15 -6 24 -6 24 0 0 6 -8 10
-18 10 -10 0 -22 3 -26 7 -3 4 -14 8 -24 9 -9 2 -46 8 -82 14 -59 11 -142 20
-197 23 -12 1 -20 4 -18 7 12 20 375 18 478 -3 17 -3 10 50 -15 100 -45 95
-215 179 -354 174 -38 -1 -42 2 -48 26 -10 41 -64 117 -95 132 -14 7 -53 15
-86 17 -52 5 -68 1 -120 -24z m742 -1083 c-9 -6 -17 -14 -17 -20 0 -8 -102
-112 -142 -144 -127 -102 -258 -159 -538 -235 -85 -24 -162 -46 -171 -51 -12
-6 -18 -4 -21 9 -8 32 -2 122 9 133 11 11 112 32 213 45 25 3 52 7 60 9 13 4
70 13 125 21 11 1 20 3 20 4 0 1 9 3 20 5 70 13 244 76 270 97 6 5 30 22 55
38 25 16 63 47 84 69 22 22 42 38 45 35 3 -3 -2 -10 -12 -15z m-1447 -1513 c0
-8 -5 -27 -11 -43 l-11 -28 -15 29 c-14 27 -14 30 3 43 23 17 34 17 34 -1z"/>
<path d="M5537 7385 c-9 -8 -13 -23 -11 -33 3 -9 -2 -30 -10 -46 -11 -22 -12
-34 -4 -52 6 -13 15 -24 20 -24 19 0 6 -30 -16 -36 -14 -3 -27 -12 -30 -20 -3
-8 -19 -14 -35 -14 -37 0 -43 -17 -40 -102 2 -52 -2 -72 -24 -115 -15 -29 -27
-54 -27 -56 0 -5 123 10 143 18 9 4 17 16 17 26 0 10 4 19 9 19 12 0 11 -41
-1 -57 -9 -11 -96 -28 -133 -26 -109 9 -156 4 -192 -18 -21 -13 -40 -26 -43
-31 -12 -17 -84 -39 -120 -36 -35 2 -72 -10 -42 -13 14 -2 31 -6 35 -8 1 -2
13 -5 26 -7 14 -2 27 -6 29 -8 4 -4 82 17 126 34 12 4 23 8 26 8 3 0 18 5 33
11 16 6 33 9 37 6 10 -6 -16 -62 -63 -139 l-31 -49 29 -56 c16 -31 33 -60 38
-66 5 -5 22 -35 39 -65 l31 -55 14 40 c13 35 68 248 76 293 2 9 9 36 16 60 11
40 13 42 44 37 18 -3 39 -8 47 -10 8 -2 49 2 90 9 78 13 192 11 222 -5 9 -5
25 -9 35 -9 10 0 36 -9 57 -19 31 -16 96 -28 116 -21 3 1 16 4 30 6 48 9 46
24 -3 24 -49 0 -89 16 -142 56 -34 25 -90 43 -120 38 -11 -2 -47 -4 -80 -5
-54 -1 -82 3 -136 17 -17 5 -33 64 -18 64 5 0 6 7 3 14 -3 8 8 32 25 54 54 67
50 148 -9 167 -24 7 -26 37 -5 55 19 16 19 50 1 76 -8 10 -12 29 -10 41 4 15
0 25 -14 32 -27 15 -38 14 -55 -4z"/>
<path d="M5066 6701 c-9 -9 -16 -20 -16 -24 0 -8 -152 -270 -160 -277 -13 -10
-19 -40 -9 -40 15 0 32 20 60 70 13 25 27 47 32 48 4 2 7 8 7 13 0 5 17 37 38
71 20 35 46 80 57 101 11 20 22 37 25 37 6 0 80 -129 80 -141 0 -5 -11 -32
-24 -61 -13 -29 -27 -63 -31 -75 -3 -13 -11 -23 -16 -23 -16 0 -18 -1 -54 -16
-19 -8 -35 -12 -35 -9 0 2 -11 0 -24 -5 -13 -5 -46 -11 -72 -14 -49 -6 -71
-16 -38 -17 21 0 303 0 397 1 l58 0 -17 33 c-9 17 -36 65 -60 104 -24 40 -44
75 -44 78 0 2 -16 29 -35 59 -19 30 -35 59 -35 64 0 13 -29 36 -50 39 -9 1
-25 -6 -34 -16z"/>
<path d="M5983 6668 c-17 -29 -40 -69 -51 -88 -11 -19 -43 -75 -71 -124 -34
-58 -49 -92 -42 -99 6 -6 20 10 41 47 18 31 36 59 41 62 5 3 7 10 4 15 -4 5
-2 9 3 9 5 0 12 8 16 18 3 9 18 38 33 63 16 25 39 65 52 88 24 39 41 53 41 31
0 -6 11 -27 23 -48 13 -20 35 -57 49 -82 14 -25 34 -61 45 -80 11 -19 31 -55
45 -79 14 -25 33 -45 42 -47 12 -2 8 12 -20 64 -20 37 -40 72 -44 77 -4 6 -19
30 -32 55 -110 197 -122 206 -175 118z"/>
<path d="M1926 6563 c9 -21 22 -51 29 -68 8 -16 37 -86 66 -155 126 -306 154
-372 277 -665 71 -170 143 -341 158 -380 15 -38 34 -80 42 -92 8 -13 11 -23 8
-23 -4 0 -1 -12 8 -27 15 -29 40 -87 71 -164 14 -34 28 -50 57 -64 42 -20 55
-17 39 12 -6 10 -51 117 -101 238 -50 121 -97 234 -105 250 -7 17 -29 71 -50
120 -20 50 -42 104 -50 120 -13 28 -36 84 -40 95 -1 3 -6 16 -12 30 -6 14 -41
96 -77 182 -77 186 -109 251 -206 418 -40 69 -84 144 -97 168 -30 52 -37 54
-17 5z"/>
<path d="M1931 6429 c22 -85 50 -185 61 -224 12 -38 23 -74 24 -80 1 -5 8 -23
15 -40 6 -16 13 -34 14 -40 2 -5 23 -59 48 -120 24 -60 95 -236 157 -390 62
-154 118 -293 126 -310 7 -16 22 -55 34 -85 11 -30 25 -64 29 -75 9 -18 22
-53 26 -65 2 -6 20 -49 40 -95 7 -16 16 -39 20 -50 6 -18 8 -17 20 12 20 47
20 64 2 107 -9 21 -17 44 -17 50 0 7 -4 16 -8 21 -5 6 -32 71 -61 145 -30 74
-59 149 -66 165 -7 17 -45 111 -85 210 -39 99 -77 194 -85 210 -7 17 -25 62
-40 100 -15 39 -34 84 -40 100 -14 33 -61 150 -168 415 -38 96 -73 179 -78
184 -4 5 10 -61 32 -145z"/>
<path d="M4817 6323 c-4 -3 -20 -6 -37 -5 -27 1 -30 -2 -24 -21 42 -137 182
-215 363 -204 128 7 231 67 282 161 34 64 25 69 -118 67 -65 -1 -124 -2 -130
-1 -18 0 -79 0 -207 1 -60 0 -113 2 -116 4 -4 3 -10 2 -13 -2z"/>
<path d="M5757 6320 c-21 -3 -38 -7 -39 -10 -5 -19 29 -82 62 -116 32 -34 93
-73 120 -79 3 -1 25 -7 50 -14 65 -19 177 -9 242 22 82 38 138 97 157 165 l9
31 -87 3 c-47 2 -102 1 -121 -2 -19 -3 -107 -3 -195 0 -88 3 -177 3 -198 0z"/>
<path d="M3971 5506 c-12 -18 -21 -36 -21 -39 0 -4 -11 -30 -24 -59 -44 -98
-93 -286 -82 -315 3 -7 1 -15 -3 -18 -8 -5 -7 -351 1 -387 9 -39 13 -22 15 60
2 116 18 315 28 352 2 8 7 31 10 50 13 80 15 87 65 280 5 19 16 52 25 73 19
46 13 48 -14 3z"/>
<path d="M2343 2620 c-16 -4 -18 -18 -18 -125 l0 -120 1433 -2 1432 -2 0 125
c0 92 -3 124 -12 125 -63 4 -2821 3 -2835 -1z"/>
<path d="M2326 2280 c-1 -3 -2 -59 -2 -125 l1 -120 1433 -2 1432 -2 0 127 0
127 -1431 0 c-787 0 -1432 -2 -1433 -5z"/>
<path d="M263 1790 c-120 -25 -208 -113 -248 -248 -17 -56 -16 -233 2 -285 56
-163 152 -230 328 -229 60 0 108 6 145 19 l55 18 0 65 c-1 52 -4 64 -15 61
-135 -35 -200 -40 -257 -16 -20 8 -42 23 -50 33 -73 90 -77 297 -7 389 53 70
123 84 230 48 42 -14 77 -24 78 -23 7 9 46 112 46 119 0 4 -25 17 -55 28 -63
24 -189 34 -252 21z"/>
<path d="M906 1783 c-157 -47 -235 -175 -231 -378 2 -90 17 -159 44 -213 18
-35 98 -122 112 -122 3 0 24 -8 45 -17 55 -24 60 -24 154 -25 139 0 232 43
294 136 49 73 65 147 61 269 -6 190 -73 297 -217 346 -66 22 -195 24 -262 4z
m204 -132 c79 -33 109 -102 107 -243 -2 -90 -5 -110 -28 -153 -41 -80 -121
-111 -218 -85 -82 22 -121 91 -126 223 -6 143 28 222 109 257 44 19 113 20
156 1z"/>
<path d="M6483 1792 c-35 -4 -39 -12 -121 -252 -35 -102 -116 -332 -157 -445
-8 -23 -15 -45 -15 -51 0 -5 34 -10 83 -9 l82 0 22 65 c12 36 22 73 22 82 1
10 9 21 19 26 13 7 206 9 258 3 9 -1 43 -89 51 -136 6 -34 21 -40 103 -40 76
-1 80 0 74 20 -9 30 -82 240 -109 315 -33 88 -132 370 -140 397 -5 19 -14 22
-73 25 -37 2 -81 2 -99 0z m122 -303 c19 -64 35 -121 35 -127 0 -8 -30 -12
-95 -12 l-94 0 14 40 c8 22 14 43 14 45 0 3 11 42 25 88 14 45 28 95 32 112
l7 29 13 -29 c7 -17 29 -82 49 -146z"/>
<path d="M1549 1788 c-1 -2 -2 -171 -3 -375 -1 -245 2 -373 9 -374 46 -5 116
-4 126 2 8 5 10 79 7 277 -2 149 -1 269 3 267 5 -4 45 -71 129 -220 73 -129
175 -303 186 -315 10 -12 34 -15 106 -14 51 1 95 2 98 3 4 1 5 692 1 738 -1 8
-25 12 -72 12 l-71 0 4 -279 c2 -222 0 -276 -9 -268 -7 6 -13 14 -13 18 0 5
-42 79 -93 167 -51 87 -101 175 -112 196 -11 20 -23 37 -27 37 -5 0 -8 4 -8 9
0 5 -14 34 -32 65 l-32 56 -98 0 c-54 0 -99 -1 -99 -2z"/>
<path d="M2330 1725 c0 -41 4 -64 13 -67 6 -3 51 -4 100 -3 48 1 87 -1 88 -4
1 -3 2 -143 3 -311 l1 -305 70 0 c39 -1 75 0 80 2 6 2 10 113 9 308 0 207 3
305 10 308 6 2 50 3 98 2 100 -1 100 -1 97 83 l-2 50 -284 1 -283 0 0 -64z"/>
<path d="M3017 1772 c-3 -9 -4 -179 -4 -377 l2 -360 70 0 c39 -1 75 0 80 2 6
2 9 131 9 366 -1 199 -2 367 -3 374 -1 8 -26 12 -75 12 -62 0 -76 -3 -79 -17z"/>
<path d="M3365 1423 c1 -203 2 -373 3 -379 1 -6 29 -10 70 -9 l67 1 0 239 c0
132 -2 259 -6 283 -3 23 -4 42 -3 42 5 0 43 -61 76 -120 54 -97 250 -435 254
-439 3 -3 48 -5 102 -5 l97 -1 3 377 2 377 -70 0 c-67 -1 -70 -2 -71 -25 -4
-92 -3 -374 1 -447 l5 -88 -22 28 c-13 15 -23 31 -23 35 0 6 -74 136 -130 228
-14 23 -71 122 -91 156 -68 122 -56 114 -169 114 l-96 0 1 -367z"/>
<path d="M4222 1412 l3 -377 205 -1 c113 0 210 1 215 3 6 2 10 31 10 66 l-1
62 -124 2 c-69 0 -131 2 -137 2 -16 1 -19 191 -3 192 6 0 63 0 128 1 l117 0 0
59 c0 32 -4 61 -8 65 -4 4 -61 7 -127 7 l-120 -1 0 82 0 82 128 -1 c70 0 132
1 137 3 6 1 10 30 10 65 l0 62 -218 2 -217 2 2 -377z"/>
<path d="M4814 1777 c-2 -7 -3 -176 -2 -377 l3 -364 60 -1 c33 -1 65 0 70 2
11 4 12 473 2 526 -3 15 -2 27 2 27 7 0 194 -318 289 -490 13 -25 28 -49 33
-55 5 -5 54 -10 109 -10 l100 -1 -2 376 -3 375 -64 3 c-38 2 -67 -1 -71 -8 -3
-5 -5 -132 -4 -281 l2 -271 -22 38 c-13 22 -73 127 -136 234 -62 107 -118 204
-124 215 -6 11 -13 22 -16 25 -3 3 -10 14 -16 25 -10 18 -23 20 -108 22 -69 2
-98 -1 -102 -10z"/>
<path d="M5597 1782 c-2 -4 -3 -34 -2 -67 l0 -60 102 0 102 0 0 -303 c0 -167
2 -307 6 -310 4 -4 39 -7 78 -7 l72 0 5 310 5 310 93 0 c61 0 95 4 100 12 4 6
7 36 6 65 l-1 53 -281 2 c-155 1 -283 -1 -285 -5z"/>
<path d="M7009 1758 c-6 -229 -2 -711 6 -717 8 -6 407 -8 450 -2 6 0 10 29 9
63 l-1 63 -151 0 c-128 0 -152 2 -153 15 0 8 -1 148 -1 311 l0 296 -79 2 -79
2 -1 -33z"/>
<path d="M469 775 c-97 -31 -171 -103 -210 -203 -48 -124 -27 -362 38 -430 7
-7 18 -21 25 -31 21 -30 107 -79 151 -87 50 -9 187 -11 187 -4 0 3 9 6 21 7
40 3 88 24 93 41 3 14 2 87 -3 113 -1 4 -31 -2 -68 -12 -150 -42 -255 -8 -286
90 -44 142 -20 292 59 363 38 33 158 44 191 16 7 -6 13 -8 13 -4 0 4 13 0 30
-9 16 -8 33 -15 37 -15 4 0 19 28 32 61 27 70 27 69 -54 95 -72 22 -200 27
-256 9z"/>
<path d="M1141 774 c-97 -26 -161 -80 -201 -171 -28 -64 -35 -110 -33 -223 2
-109 23 -177 75 -245 38 -51 124 -101 189 -111 65 -9 170 -10 176 -1 2 4 14 7
26 7 65 1 159 75 201 158 35 69 40 100 40 227 -1 90 -5 121 -24 169 -36 95
-107 161 -202 190 -61 18 -182 18 -247 0z m202 -133 c66 -25 107 -113 107
-231 0 -59 -2 -84 -13 -130 -24 -106 -155 -162 -261 -110 -25 12 -54 35 -64
53 -65 107 -50 321 26 390 45 41 137 54 205 28z"/>
<path d="M3547 775 c-95 -26 -146 -90 -152 -189 -4 -62 23 -129 67 -167 16
-14 74 -50 129 -79 115 -62 139 -91 118 -142 -15 -37 -48 -50 -119 -47 -53 2
-163 32 -187 51 -6 5 -14 5 -16 1 -7 -12 -5 -130 2 -141 13 -20 137 -47 207
-46 175 3 275 82 276 218 1 101 -45 157 -192 231 -49 25 -98 55 -109 67 -25
26 -27 70 -4 93 38 38 94 40 197 6 62 -20 60 -21 90 65 l14 42 -41 16 c-96 36
-197 44 -280 21z"/>
<path d="M5450 787 c-3 -3 -17 -8 -30 -10 -84 -14 -177 -82 -212 -157 -48
-101 -56 -270 -18 -385 37 -112 120 -185 240 -210 183 -37 343 30 409 171 74
156 46 393 -58 501 -31 33 -95 70 -135 79 -35 8 -191 17 -196 11z m175 -157
c59 -36 88 -118 87 -241 -1 -150 -70 -239 -185 -239 -130 0 -198 92 -193 261
5 135 42 206 121 233 50 18 129 11 170 -14z"/>
<path d="M6878 780 c-15 -4 -29 -6 -31 -3 -5 4 -63 -31 -98 -59 -31 -25 -51
-80 -51 -138 0 -106 43 -160 187 -234 135 -71 165 -117 109 -173 -24 -24 -30
-25 -102 -20 -49 3 -100 14 -139 30 -70 29 -64 33 -67 -53 -2 -61 1 -69 40
-85 62 -26 181 -36 259 -23 121 21 198 113 190 225 -7 98 -48 144 -190 218
-49 25 -98 52 -108 59 -28 22 -30 72 -3 103 21 24 30 27 82 26 33 -1 83 -10
112 -21 l53 -20 24 55 c14 31 25 59 25 63 0 9 -36 24 -105 43 -57 16 -148 20
-187 7z"/>
<path d="M1772 491 c3 -278 4 -287 26 -330 40 -75 94 -114 187 -136 130 -30
271 7 342 90 57 66 63 107 60 400 l-2 260 -77 2 -78 1 0 -36 c-1 -20 -1 -136
-1 -257 0 -193 -3 -226 -19 -262 -24 -54 -59 -72 -136 -70 -85 3 -123 32 -139
107 -2 8 -4 129 -4 268 l-1 252 -81 -2 -80 -2 3 -285z"/>
<path d="M2574 402 l1 -377 60 0 c33 -1 65 0 71 2 11 4 12 512 1 530 -3 5 -3
14 1 20 4 6 76 -111 161 -259 85 -149 160 -275 167 -282 12 -13 188 -16 200
-3 3 3 6 46 5 94 -1 48 -2 95 -2 103 1 8 1 62 0 120 0 58 0 112 0 120 1 33 2
295 1 303 0 4 -33 7 -73 6 l-73 -2 2 -268 c1 -147 5 -273 9 -281 3 -7 -4 -1
-17 15 -13 15 -37 53 -53 85 -16 31 -34 64 -41 72 -6 8 -23 35 -36 60 -14 25
-36 63 -49 86 -13 23 -49 84 -79 136 l-55 95 -101 1 -101 1 1 -377z"/>
<path d="M4010 404 c0 -206 3 -375 7 -375 5 -1 99 -2 211 -3 131 -1 206 2 211
9 4 5 7 35 7 65 l-1 55 -137 0 -138 0 0 98 0 97 125 0 c69 0 126 3 126 8 1 4
2 31 3 61 2 38 -2 55 -12 59 -8 3 -65 6 -126 6 l-111 1 0 80 0 80 120 2 c66 0
127 2 136 2 12 1 15 14 15 65 l-1 64 -217 0 -217 0 -1 -374z"/>
<path d="M4606 771 c-7 -11 -4 -741 3 -742 17 -4 438 -5 447 -2 7 3 11 28 10
66 l-1 62 -148 0 c-122 0 -148 3 -151 15 -3 8 -5 137 -5 285 0 149 0 282 0
297 -1 27 -1 27 -76 26 -42 0 -77 -3 -79 -7z"/>
<path d="M6039 762 c-5 -104 -2 -717 3 -725 4 -7 36 -12 82 -12 l74 0 -2 142
c-1 121 1 143 14 144 25 2 72 0 74 -3 2 -2 41 -64 87 -138 46 -74 87 -137 91
-140 4 -4 43 -5 85 -4 98 2 100 3 88 12 -6 4 -47 61 -90 127 -44 66 -83 122
-87 125 -4 3 -14 18 -22 34 -15 29 -14 29 29 58 110 73 123 247 24 331 -58 50
-103 60 -286 63 -147 3 -163 1 -164 -14z m301 -130 c34 -13 48 -31 53 -67 6
-44 -11 -84 -44 -100 -36 -19 -136 -26 -146 -11 -7 9 -9 120 -4 183 1 14 102
11 141 -5z"/>
</g>
</svg>
