<svg width="748" height="745" viewBox="0 0 748 745" fill="none" xmlns="http://www.w3.org/2000/svg">
<path d="M716.716 629.27H747.244V642.449H700.757V567.184H716.716V629.27Z" fill="url(#paint0_linear_4_119)"/>
<path d="M691.233 642.449H674.038L668.53 624.534H641.142L635.685 642.449H618.491L645.055 566.875H664.566L691.233 642.449ZM664.772 611.149L656.226 583.606C655.574 581.341 655.128 579.66 654.888 578.561C653.755 582.92 650.512 593.782 645.158 611.149H664.772Z" fill="url(#paint1_linear_4_119)"/>
<path d="M616.38 580.466H595.942V642.449H579.983V580.466H559.545V567.184H616.38V580.466Z" fill="url(#paint2_linear_4_119)"/>
<path d="M547.91 642.449H527.627L494.885 585.511H494.422C495.074 595.293 495.4 602.466 495.4 607.03V642.449H481.14V567.184H501.269L533.959 623.556H534.319C533.805 613.774 533.547 606.859 533.547 602.809V567.184H547.91V642.449Z" fill="url(#paint3_linear_4_119)"/>
<path d="M465.387 580.26H437.999V596.786H463.43V609.862H437.999V629.27H465.387V642.449H422.04V567.184H465.387V580.26Z" fill="url(#paint4_linear_4_119)"/>
<path d="M403.043 642.449H382.76L350.018 585.511H349.555C350.207 595.293 350.533 602.466 350.533 607.03V642.449H336.273V567.184H356.402L389.092 623.556H389.452C388.938 613.774 388.68 606.859 388.68 602.809V567.184H403.043V642.449Z" fill="url(#paint5_linear_4_119)"/>
<path d="M317.328 642.449H301.369V567.184H317.328V642.449Z" fill="url(#paint6_linear_4_119)"/>
<path d="M289.786 580.466H269.348V642.449H253.389V580.466H232.951V567.184H289.786V580.466Z" fill="url(#paint7_linear_4_119)"/>
<path d="M221.316 642.449H201.033L168.291 585.511H167.827C168.48 595.293 168.806 602.466 168.806 607.03V642.449H154.545V567.184H174.674L207.365 623.556H207.725C207.21 613.774 206.953 606.859 206.953 602.809V567.184H221.316V642.449Z" fill="url(#paint8_linear_4_119)"/>
<path d="M76.5519 633.44C70.3742 626.747 67.2854 617.138 67.2854 604.611C67.2854 592.084 70.3742 582.525 76.5519 575.936C82.764 569.312 91.6358 566 103.168 566C114.734 566 123.588 569.329 129.732 575.987C135.875 582.645 138.947 592.221 138.947 604.714C138.947 617.172 135.858 626.747 129.68 633.44C123.502 640.132 114.648 643.479 103.116 643.479C91.5843 643.479 82.7296 640.132 76.5519 633.44ZM103.219 579.282C96.8697 579.282 92.082 581.427 88.8559 585.717C85.6297 589.973 84.0167 596.305 84.0167 604.714C84.0167 621.634 90.3831 630.094 103.116 630.094C115.849 630.094 122.215 621.634 122.215 604.714C122.215 587.759 115.883 579.282 103.219 579.282Z" fill="url(#paint9_linear_4_119)"/>
<path d="M33.8229 643.479C22.8746 643.479 14.5004 640.167 8.70026 633.543C2.90009 626.919 0 617.378 0 604.919C0 604.748 0 604.576 0 604.405C0 596.854 1.4243 590.162 4.27291 584.327C7.12151 578.458 11.1885 573.962 16.4739 570.839C21.7592 567.682 27.8168 566.103 34.6466 566.103C34.8868 566.103 35.1099 566.103 35.3158 566.103C42.6948 566.103 50.0394 567.87 57.3496 571.405L52.2016 584.379C45.2345 581.05 39.6059 579.385 35.3158 579.385C29.3097 579.385 24.6593 581.65 21.3645 586.18C18.0698 590.676 16.4224 596.957 16.4224 605.022C16.4224 621.805 22.7202 630.197 35.3158 630.197C40.5669 630.197 46.9677 628.875 54.5182 626.233V639.618C48.3405 642.192 41.4421 643.479 33.8229 643.479Z" fill="url(#paint10_linear_4_119)"/>
<path d="M668.621 725.122C673.838 727.421 678.179 729.034 681.646 729.961C685.146 730.853 688.493 731.299 691.684 731.299C694.911 731.299 697.45 730.63 699.304 729.292C701.157 727.953 702.084 725.963 702.084 723.32C702.084 721.844 701.689 720.557 700.899 719.459C700.11 718.326 698.892 717.211 697.244 716.113C695.631 714.98 692.439 713.298 687.669 711.068C682.898 708.802 679.38 706.692 677.115 704.735C672.07 700.377 669.548 694.92 669.548 688.364C669.548 681.809 671.796 676.627 676.292 672.817C680.822 669.008 687.068 667.103 695.031 667.103C701.723 667.103 709.171 668.87 717.373 672.405L712.225 684.812C708.347 683.234 705.069 682.101 702.392 681.415C699.715 680.728 696.987 680.385 694.207 680.385C691.461 680.385 689.265 681.089 687.617 682.496C685.97 683.868 685.146 685.705 685.146 688.004C685.146 689.411 685.455 690.647 686.073 691.711C686.725 692.74 687.755 693.753 689.162 694.748C690.603 695.709 694.001 697.459 699.355 699.999C706.356 703.328 711.161 706.709 713.77 710.141C716.412 713.436 717.734 717.571 717.734 722.548C717.734 729.275 715.28 734.646 710.372 738.661C705.464 742.539 698.823 744.479 690.449 744.479C682.075 744.479 674.799 742.968 668.621 739.948V725.122Z" fill="url(#paint11_linear_4_119)"/>
<path d="M603.704 668.184H625.634C635.828 668.184 643.378 670.037 648.286 673.744C653.228 677.451 655.699 683.114 655.699 690.733C655.699 695.16 654.481 699.107 652.044 702.573C649.607 706.005 646.158 708.699 641.696 710.656C653.777 728.708 661.156 739.639 663.833 743.449H646.124L628.157 714.568H619.663V743.449H603.704V668.184ZM619.663 681.26V701.595H624.811C629.856 701.595 633.58 700.754 635.982 699.073C638.385 697.391 639.586 694.765 639.586 691.196C639.586 687.627 638.367 685.087 635.931 683.577C633.528 682.032 629.719 681.26 624.502 681.26H619.663Z" fill="url(#paint12_linear_4_119)"/>
<path d="M525.71 734.44C519.532 727.747 516.444 718.138 516.444 705.611C516.444 693.084 519.532 683.525 525.71 676.936C531.922 670.312 540.794 667 552.326 667C563.892 667 572.746 670.329 578.89 676.987C585.033 683.645 588.105 693.221 588.105 705.714C588.105 718.172 585.016 727.747 578.838 734.44C572.661 741.132 563.806 744.479 552.274 744.479C540.743 744.479 531.888 741.132 525.71 734.44ZM552.377 680.282C546.028 680.282 541.24 682.427 538.014 686.717C534.788 690.973 533.175 697.305 533.175 705.714C533.175 722.634 539.541 731.094 552.274 731.094C565.007 731.094 571.374 722.634 571.374 705.714C571.374 688.759 565.042 680.282 552.377 680.282Z" fill="url(#paint13_linear_4_119)"/>
<path d="M476.134 730.27H506.662V743.449H460.175V668.184H476.134V730.27Z" fill="url(#paint14_linear_4_119)"/>
<path d="M444.422 681.26H417.034V697.786H442.466V710.862H417.034V730.27H444.422V743.449H401.075V668.184H444.422V681.26Z" fill="url(#paint15_linear_4_119)"/>
<path d="M338.32 725.122C343.537 727.421 347.878 729.034 351.345 729.961C354.845 730.853 358.192 731.299 361.383 731.299C364.609 731.299 367.149 730.63 369.003 729.292C370.856 727.953 371.782 725.963 371.782 723.32C371.782 721.844 371.388 720.557 370.598 719.459C369.809 718.326 368.591 717.211 366.943 716.113C365.33 714.98 362.138 713.298 357.368 711.068C352.597 708.802 349.079 706.692 346.814 704.735C341.769 700.377 339.247 694.92 339.247 688.364C339.247 681.809 341.495 676.627 345.991 672.817C350.521 669.008 356.767 667.103 364.73 667.103C371.422 667.103 378.87 668.87 387.072 672.405L381.924 684.812C378.046 683.234 374.768 682.101 372.091 681.415C369.414 680.728 366.686 680.385 363.906 680.385C361.16 680.385 358.964 681.089 357.316 682.496C355.669 683.868 354.845 685.705 354.845 688.004C354.845 689.411 355.154 690.647 355.772 691.711C356.424 692.74 357.454 693.753 358.861 694.748C360.302 695.709 363.7 697.459 369.054 699.999C376.055 703.328 380.86 706.709 383.469 710.141C386.111 713.436 387.433 717.571 387.433 722.548C387.433 729.275 384.979 734.646 380.071 738.661C375.163 742.539 368.522 744.479 360.148 744.479C351.774 744.479 344.498 742.968 338.32 739.948V725.122Z" fill="url(#paint16_linear_4_119)"/>
<path d="M324.008 743.449H303.725L270.983 686.511H270.52C271.172 696.293 271.498 703.466 271.498 708.03V743.449H257.238V668.184H277.367L310.057 724.556H310.417C309.903 714.774 309.645 707.859 309.645 703.809V668.184H324.008V743.449Z" fill="url(#paint17_linear_4_119)"/>
<path d="M238.808 668.184V716.885C238.808 716.988 238.808 717.091 238.808 717.194C238.808 725.431 236.028 732.037 230.468 737.014C224.908 741.99 217.477 744.479 208.176 744.479C208.005 744.479 207.816 744.479 207.61 744.479C197.932 744.479 190.416 741.99 185.062 737.014C179.708 732.037 177.031 725.259 177.031 716.679V668.184H192.938V714.259C192.938 720.094 194.122 724.367 196.49 727.078C198.858 729.755 202.668 731.094 207.919 731.094C213.17 731.094 216.98 729.738 219.348 727.027C221.716 724.315 222.9 720.025 222.9 714.156V668.184H238.808Z" fill="url(#paint18_linear_4_119)"/>
<path d="M99.5519 734.44C93.3742 727.747 90.2854 718.138 90.2854 705.611C90.2854 693.084 93.3742 683.525 99.5519 676.936C105.764 670.312 114.636 667 126.168 667C137.734 667 146.588 670.329 152.732 676.987C158.875 683.645 161.947 693.221 161.947 705.714C161.947 718.172 158.858 727.747 152.68 734.44C146.502 741.132 137.648 744.479 126.116 744.479C114.584 744.479 105.73 741.132 99.5519 734.44ZM126.219 680.282C119.87 680.282 115.082 682.427 111.856 686.717C108.63 690.973 107.017 697.305 107.017 705.714C107.017 722.634 113.383 731.094 126.116 731.094C138.849 731.094 145.215 722.634 145.215 705.714C145.215 688.759 138.883 680.282 126.219 680.282Z" fill="url(#paint19_linear_4_119)"/>
<path d="M56.8229 744.479C45.8746 744.479 37.5004 741.167 31.7003 734.543C25.9001 727.919 23 718.378 23 705.919C23 705.748 23 705.576 23 705.405C23 697.854 24.4243 691.162 27.2729 685.327C30.1215 679.458 34.1885 674.962 39.4739 671.839C44.7592 668.682 50.8168 667.103 57.6466 667.103C57.8868 667.103 58.1099 667.103 58.3158 667.103C65.6948 667.103 73.0394 668.87 80.3496 672.405L75.2016 685.379C68.2345 682.05 62.6059 680.385 58.3158 680.385C52.3097 680.385 47.6593 682.65 44.3645 687.18C41.0698 691.676 39.4224 697.957 39.4224 706.022C39.4224 722.805 45.7202 731.197 58.3158 731.197C63.5669 731.197 69.9677 729.875 77.5182 727.233V740.618C71.3405 743.192 64.4421 744.479 56.8229 744.479Z" fill="url(#paint20_linear_4_119)"/>
<path d="M385.616 286.784C384.661 253.24 388.88 220.422 400.87 188.73C380.518 222.102 380.996 254.099 385.616 286.784Z" fill="url(#paint21_linear_4_119)"/>
<path d="M232.445 483.827H518.989V508.779H232.445V483.827Z" fill="url(#paint22_linear_4_119)"/>
<path d="M410.034 53.1809C408.888 52.78 407.704 52.4172 406.502 52.0927C400.125 48.8471 381.893 46.2507 366.257 45.4489C374.333 42.2033 407.094 42.566 416.544 45.6779C418.033 46.1743 417.689 44.3606 417.174 43.9979C417.174 43.9979 416.945 43.3488 416.964 42.5851C417.498 27.312 391.763 15.4944 375.364 18.2053C367.498 -19.2903 316.562 9.57601 333.191 29.6602C334.202 30.8821 346.898 34.7576 346.898 34.7576C345.505 40.3705 343.672 46.2316 342.717 52.0927C349.647 47.4153 391.954 48.4462 410.034 53.1809Z" fill="url(#paint23_linear_4_119)"/>
<path d="M484.586 112.154H534.033L534.166 111.792L533.345 110.379L529.756 104.174L520 87.2782L514.139 77.1215L512.478 74.2578H507.534L505.758 77.3315L486.686 110.379H489.798L509.748 75.8424C509.996 75.7088 510.149 75.6133 510.149 75.6133L518.492 90.0464C516.373 94.0747 514.235 98.8667 512.154 105.262C507.973 108.012 495.945 109.482 484.586 112.154Z" fill="url(#paint24_linear_4_119)"/>
<path d="M353.657 205.684C347.795 260.361 369.35 309.656 390.579 329.854C341.686 207.631 396.67 191.269 421.088 144.629C421.336 157.458 394.474 181.514 403.963 222.999C407.189 237.108 409.881 249.67 412.153 260.858C413.756 268.781 408.201 266.91 409.442 274.203C410.53 280.56 418.472 296.082 419.484 302.897C420.171 307.575 420.725 311.851 421.164 315.727C422.061 323.936 411.58 318.247 411.485 323.497C411.427 327.048 421.985 342.226 421.603 344.765C417.327 372.715 396.097 347.189 423.569 451.123H400.469L397.987 442.246C368.472 336.708 382.256 399.004 369.35 372.161C345.18 321.836 322.786 263.282 353.657 205.684C345.237 213.416 337.562 221.911 331.663 232.622C331.224 233.576 330.785 234.55 330.327 235.562C326.318 244.172 324.065 252.801 322.079 261.354C319.063 274.355 319.368 292.053 320.781 309.98C322.9 336.956 323.416 333.844 326.108 359.427C329.277 389.649 348.177 404.406 367.421 428.901L327.597 395.873C327.52 403.261 327.215 410.917 326.547 418.84L316.104 451.066H272.499V476.018H479.011V451.066H435.845C434.165 444.059 432.562 437.454 429.24 431.917C403.294 388.675 447.224 339.896 424.619 262.099L419.121 243.16C410.645 213.969 404.86 209.903 414.787 180.177C418.243 169.811 421.832 159.673 422.844 144.744C440.904 143.445 439.205 148.543 463.795 141.765C473.685 140.238 481.283 137.565 489.034 134.568C480.405 130.826 474.085 124.01 472.253 115.935L472.1 115.992C463.757 115.343 452.111 113.052 441.458 114.808L421.126 108.737V110.646C421.03 109.94 420.935 109.233 420.82 108.527L420.782 108.584C414.024 164.427 380.27 181.208 353.657 205.684Z" fill="url(#paint25_linear_4_119)"/>
<path d="M232.445 517.79H518.989V542.743H232.445V517.79Z" fill="url(#paint26_linear_4_119)"/>
<path d="M597.13 69.7142C603.43 72.5206 609.94 71.5088 616.412 67.0414C601.578 70.8978 598.065 63.414 593.426 60.9512C582.391 55.0901 578.287 63.1276 559.863 56.7129V46.919L561.429 46.2317C571.375 35.1968 566.412 28.6675 559.863 26.6629V23.4747C561.715 22.4056 562.975 20.4391 562.975 18.1482C562.975 13.1653 559.291 14.5971 560.398 11.1798L561.238 8.58333L559.023 6.97966L556.809 5.37598L554.594 6.97966L552.379 8.58333L553.219 11.1798C554.327 14.5971 550.642 13.1653 550.642 18.1482C550.642 20.4391 551.902 22.4056 553.754 23.4747V26.1093C550.967 26.4529 548.676 27.713 548.027 29.8703L542.929 30.1949C540.581 30.7867 540.906 36.1705 541.306 40.6952C541.516 43.0243 541.726 45.1244 541.631 46.2508C539.588 49.7636 537.717 53.3719 535.942 57.0374C539.76 57.362 544.304 57.3811 550.776 55.5101C551.578 53.6773 552.475 51.7682 553.487 49.7445L553.773 49.6109V56.732C535.35 63.1467 531.245 55.1092 520.21 60.9703C515.571 63.4331 512.039 70.8978 497.224 67.0605C503.696 71.5279 510.206 72.5206 516.507 69.7333C521.184 67.6523 526.32 65.8768 532.219 65.0177C531.57 66.4686 530.902 67.9196 530.252 69.3896C527.618 75.3461 524.659 79.5654 521.585 84.6437L535.388 108.565C542.356 89.512 542.089 79.6226 547.053 64.9986C550.127 65.4186 553.372 66.0868 556.809 67.0795C574.487 61.9439 586.916 65.1704 597.13 69.7142Z" fill="url(#paint27_linear_4_119)"/>
<path d="M601.139 74.2769L580.291 110.398H583.403L603.354 75.8424C603.602 75.7088 603.754 75.6133 603.754 75.6133L623.82 110.379H626.932L606.084 74.2578H601.139V74.2769Z" fill="url(#paint28_linear_4_119)"/>
<path d="M571.242 114.102C573.456 127.046 587.107 137.012 603.621 137.012C620.135 137.012 633.785 127.046 636 114.102H571.242Z" fill="url(#paint29_linear_4_119)"/>
<path d="M477.675 114.235H475.155C475.193 114.426 475.25 114.598 475.288 114.77C475.269 114.77 475.269 114.77 475.25 114.789H475.288C477.789 127.466 491.268 137.145 507.534 137.145C508.775 137.145 509.977 137.069 511.18 136.954C527.16 136.496 540.237 126.721 542.395 114.083H477.636C477.656 114.14 477.656 114.197 477.675 114.235Z" fill="url(#paint30_linear_4_119)"/>
<path d="M235.442 276.417L258.963 266.757L261.903 273.84L260.681 274.355L260.853 281.801C259.077 284.187 257.951 290.411 261.54 293.199C265.454 296.234 268.833 297.532 271.754 297.59L273.091 300.816C271.811 301.847 271.143 302.916 271.449 303.718C272.002 305.226 275.668 305.283 279.658 303.852C283.629 302.401 286.416 300.014 285.863 298.487C285.595 297.723 284.526 297.341 283.037 297.303L280.937 292.225C283.419 288.712 285.08 283.863 286.111 278.975L285.424 267.769C286.34 263.168 287.867 258.643 289.662 254.176L292.239 253.107C292.354 251.503 292.258 250.033 292.029 248.639C298.979 233.29 308.276 218.284 308.925 201.903C319.655 188.253 325.898 177.447 330.919 161.888C331.873 171.223 340.197 175.443 341.152 187.241C341.228 188.272 341.266 189.379 341.228 190.544C341.209 191.155 323.492 225.901 323.435 226.55C344.989 182.296 407.17 154.136 420.706 108.68C394.436 144.19 361.866 146.805 331.262 155.912C331.014 157.115 330.919 158.203 330.861 159.253C329.429 153.22 327.539 144.648 331.396 141.002C364.882 133.499 393.787 136.954 420.381 108.374L407.704 106.312C398.598 102.208 383.878 94.8575 379.315 88.3473C396.364 93.3111 402.779 97.7785 404.058 85.8845L405.165 81.4935L407.571 81.7417C413.489 84.4717 409.518 70.7832 411.714 66.8694C398.006 59.5001 379.144 55.1664 349.972 56.9801C350.106 55.6627 350.144 53.0472 350.277 51.7299C350.335 51.2144 342.373 52.4172 342.755 52.1308C341.514 59.7101 341.782 67.2512 346.44 74.2387C348.005 76.587 355.833 86.3045 355.833 86.3045C346.115 94.6857 347.318 103.296 326.661 111.448L324.542 112.288V112.25L324.103 112.46L323.797 112.574V112.593L312.19 118.245C302.472 134.033 300.2 166.47 294.206 190.582C283.667 203.641 278.513 227.448 275.076 254.672C273.644 255.188 271.964 255.818 269.921 256.658L260.051 255.436L253.885 263.244C242.754 267.807 243.327 269.468 234.736 266.585L229.008 264.676C229.868 268.914 231.49 272.943 235.442 276.417ZM274.332 260.438C274.217 261.411 274.102 262.385 273.988 263.359L272.079 269.621L271.621 269.812L268.7 262.767L274.332 260.438Z" fill="url(#paint31_linear_4_119)"/>
<path d="M256.672 253.297L188 82.9062L197.393 119.314C199.894 128.993 202.109 135.56 205.851 144.82L253.274 262.5L256.672 253.297Z" fill="url(#paint32_linear_4_119)"/>
<path d="M269.425 255.856L220.398 138.825C216.542 129.604 213.506 123.38 208.466 114.751L189.547 82.2571L260.49 251.713L269.425 255.856Z" fill="url(#paint33_linear_4_119)"/>
<defs>
<linearGradient id="paint0_linear_4_119" x1="700.757" y1="604.817" x2="747.244" y2="604.817" gradientUnits="userSpaceOnUse">
<stop offset="1" stop-color="#D4ADFC"/>
</linearGradient>
<linearGradient id="paint1_linear_4_119" x1="618.491" y1="604.662" x2="691.233" y2="604.662" gradientUnits="userSpaceOnUse">
<stop offset="1" stop-color="#D4ADFC"/>
</linearGradient>
<linearGradient id="paint2_linear_4_119" x1="559.545" y1="604.817" x2="616.38" y2="604.817" gradientUnits="userSpaceOnUse">
<stop offset="1" stop-color="#D4ADFC"/>
</linearGradient>
<linearGradient id="paint3_linear_4_119" x1="481.14" y1="604.817" x2="547.91" y2="604.817" gradientUnits="userSpaceOnUse">
<stop offset="1" stop-color="#D4ADFC"/>
</linearGradient>
<linearGradient id="paint4_linear_4_119" x1="422.04" y1="604.817" x2="465.387" y2="604.817" gradientUnits="userSpaceOnUse">
<stop offset="1" stop-color="#D4ADFC"/>
</linearGradient>
<linearGradient id="paint5_linear_4_119" x1="336.273" y1="604.817" x2="403.043" y2="604.817" gradientUnits="userSpaceOnUse">
<stop offset="1" stop-color="#D4ADFC"/>
</linearGradient>
<linearGradient id="paint6_linear_4_119" x1="301.369" y1="604.817" x2="317.328" y2="604.817" gradientUnits="userSpaceOnUse">
<stop offset="1" stop-color="#D4ADFC"/>
</linearGradient>
<linearGradient id="paint7_linear_4_119" x1="232.951" y1="604.817" x2="289.786" y2="604.817" gradientUnits="userSpaceOnUse">
<stop offset="1" stop-color="#D4ADFC"/>
</linearGradient>
<linearGradient id="paint8_linear_4_119" x1="154.545" y1="604.817" x2="221.316" y2="604.817" gradientUnits="userSpaceOnUse">
<stop offset="1" stop-color="#D4ADFC"/>
</linearGradient>
<linearGradient id="paint9_linear_4_119" x1="67.2854" y1="604.739" x2="138.947" y2="604.739" gradientUnits="userSpaceOnUse">
<stop offset="1" stop-color="#D4ADFC"/>
</linearGradient>
<linearGradient id="paint10_linear_4_119" x1="0" y1="604.791" x2="57.3496" y2="604.791" gradientUnits="userSpaceOnUse">
<stop offset="1" stop-color="#D4ADFC"/>
</linearGradient>
<linearGradient id="paint11_linear_4_119" x1="668.621" y1="705.791" x2="717.734" y2="705.791" gradientUnits="userSpaceOnUse">
<stop offset="1" stop-color="#D4ADFC"/>
</linearGradient>
<linearGradient id="paint12_linear_4_119" x1="603.704" y1="705.817" x2="663.833" y2="705.817" gradientUnits="userSpaceOnUse">
<stop offset="1" stop-color="#D4ADFC"/>
</linearGradient>
<linearGradient id="paint13_linear_4_119" x1="516.444" y1="705.739" x2="588.105" y2="705.739" gradientUnits="userSpaceOnUse">
<stop offset="1" stop-color="#D4ADFC"/>
</linearGradient>
<linearGradient id="paint14_linear_4_119" x1="460.175" y1="705.817" x2="506.662" y2="705.817" gradientUnits="userSpaceOnUse">
<stop offset="1" stop-color="#D4ADFC"/>
</linearGradient>
<linearGradient id="paint15_linear_4_119" x1="401.075" y1="705.817" x2="444.422" y2="705.817" gradientUnits="userSpaceOnUse">
<stop offset="1" stop-color="#D4ADFC"/>
</linearGradient>
<linearGradient id="paint16_linear_4_119" x1="338.32" y1="705.791" x2="387.433" y2="705.791" gradientUnits="userSpaceOnUse">
<stop offset="1" stop-color="#D4ADFC"/>
</linearGradient>
<linearGradient id="paint17_linear_4_119" x1="257.238" y1="705.817" x2="324.008" y2="705.817" gradientUnits="userSpaceOnUse">
<stop offset="1" stop-color="#D4ADFC"/>
</linearGradient>
<linearGradient id="paint18_linear_4_119" x1="177.031" y1="706.331" x2="238.808" y2="706.331" gradientUnits="userSpaceOnUse">
<stop offset="1" stop-color="#D4ADFC"/>
</linearGradient>
<linearGradient id="paint19_linear_4_119" x1="90.2854" y1="705.739" x2="161.947" y2="705.739" gradientUnits="userSpaceOnUse">
<stop offset="1" stop-color="#D4ADFC"/>
</linearGradient>
<linearGradient id="paint20_linear_4_119" x1="23" y1="705.791" x2="80.3496" y2="705.791" gradientUnits="userSpaceOnUse">
<stop offset="1" stop-color="#D4ADFC"/>
</linearGradient>
<linearGradient id="paint21_linear_4_119" x1="395.714" y1="286.784" x2="346.018" y2="255.36" gradientUnits="userSpaceOnUse">
<stop offset="1" stop-color="#D4ADFC"/>
</linearGradient>
<linearGradient id="paint22_linear_4_119" x1="436.339" y1="508.779" x2="435.637" y2="480.801" gradientUnits="userSpaceOnUse">
<stop offset="1" stop-color="#D4ADFC"/>
</linearGradient>
<linearGradient id="paint23_linear_4_119" x1="392.307" y1="53.1809" x2="382.19" y2="-4.71939" gradientUnits="userSpaceOnUse">
<stop offset="1" stop-color="#D4ADFC"/>
</linearGradient>
<linearGradient id="paint24_linear_4_119" x1="519.865" y1="112.154" x2="510.93" y2="71.6039" gradientUnits="userSpaceOnUse">
<stop offset="1" stop-color="#D4ADFC"/>
</linearGradient>
<linearGradient id="paint25_linear_4_119" x1="426.578" y1="476.018" x2="263.804" y2="143.34" gradientUnits="userSpaceOnUse">
<stop offset="1" stop-color="#D4ADFC"/>
</linearGradient>
<linearGradient id="paint26_linear_4_119" x1="436.339" y1="542.743" x2="435.637" y2="514.764" gradientUnits="userSpaceOnUse">
<stop offset="1" stop-color="#D4ADFC"/>
</linearGradient>
<linearGradient id="paint27_linear_4_119" x1="582.034" y1="108.565" x2="554.831" y2="-0.421949" gradientUnits="userSpaceOnUse">
<stop offset="1" stop-color="#D4ADFC"/>
</linearGradient>
<linearGradient id="paint28_linear_4_119" x1="613.479" y1="110.398" x2="604.851" y2="71.7765" gradientUnits="userSpaceOnUse">
<stop offset="1" stop-color="#D4ADFC"/>
</linearGradient>
<linearGradient id="paint29_linear_4_119" x1="617.321" y1="137.012" x2="614.727" y2="111.572" gradientUnits="userSpaceOnUse">
<stop offset="1" stop-color="#D4ADFC"/>
</linearGradient>
<linearGradient id="paint30_linear_4_119" x1="523" y1="137.145" x2="520.466" y2="111.52" gradientUnits="userSpaceOnUse">
<stop offset="1" stop-color="#D4ADFC"/>
</linearGradient>
<linearGradient id="paint31_linear_4_119" x1="365.414" y1="304.888" x2="270.877" y2="56.7134" gradientUnits="userSpaceOnUse">
<stop offset="1" stop-color="#D4ADFC"/>
</linearGradient>
<linearGradient id="paint32_linear_4_119" x1="236.865" y1="262.5" x2="140.002" y2="134.029" gradientUnits="userSpaceOnUse">
<stop offset="1" stop-color="#D4ADFC"/>
</linearGradient>
<linearGradient id="paint33_linear_4_119" x1="246.385" y1="255.856" x2="158.751" y2="115.988" gradientUnits="userSpaceOnUse">
<stop offset="1" stop-color="#D4ADFC"/>
</linearGradient>
</defs>
</svg>
